<svg width="30" height="31" viewBox="0 0 30 31" fill="none" xmlns="http://www.w3.org/2000/svg">
<path fill-rule="evenodd" clip-rule="evenodd" d="M29.3857 7.57331V23.5323C29.3857 27.1918 26.4191 30.1584 22.7596 30.1584H17.0862V20.1763H20.5051L21.1561 15.9346H17.0862V13.1819C17.0862 12.0212 17.6551 10.8911 19.4781 10.8911H21.3279V7.27933C21.3279 7.27933 19.648 6.99298 18.0426 6.99298C14.6923 6.99298 12.5008 9.02413 12.5008 12.7008V15.9346H8.77643V20.1763H12.5008V30.1584H6.66701C3.00751 30.1584 0.0390625 27.1918 0.0390625 23.5323V7.57331C0.0390625 3.91381 3.00751 0.947266 6.66701 0.947266H22.7596C26.4191 0.947266 29.3857 3.91381 29.3857 7.57331Z" fill="white"/>
</svg>
