<svg width="30" height="31" viewBox="0 0 30 31" fill="none" xmlns="http://www.w3.org/2000/svg">
<path d="M14.6603 3.57778C18.5603 3.57778 19.0223 3.59306 20.5628 3.66369C21.9869 3.72859 22.76 3.96722 23.2755 4.16575C23.957 4.4311 24.4438 4.74798 24.9554 5.25768C25.467 5.76928 25.7839 6.25607 26.0473 6.93758C26.2477 7.453 26.4844 8.22613 26.5494 9.65022C26.62 11.1908 26.6353 11.6527 26.6353 15.5528C26.6353 19.4528 26.62 19.9148 26.5494 21.4553C26.4844 22.8794 26.2458 23.6525 26.0473 24.168C25.7819 24.8495 25.4651 25.3362 24.9554 25.8479C24.4457 26.3595 23.957 26.6763 23.2755 26.9398C22.76 27.1402 21.9869 27.3769 20.5628 27.4418C19.0223 27.5125 18.5603 27.5277 14.6603 27.5277C10.7602 27.5277 10.2983 27.5125 8.75773 27.4418C7.33364 27.3769 6.56051 27.1383 6.04509 26.9398C5.36358 26.6744 4.8768 26.3575 4.36519 25.8479C3.85359 25.3362 3.5367 24.8495 3.27326 24.168C3.07282 23.6525 2.8361 22.8794 2.7712 21.4553C2.70057 19.9148 2.6853 19.4528 2.6853 15.5528C2.6853 11.6527 2.70057 11.1908 2.7712 9.65022C2.8361 8.22613 3.07473 7.453 3.27326 6.93758C3.53861 6.25607 3.8555 5.76928 4.36519 5.25768C4.8768 4.74608 5.36358 4.42919 6.04509 4.16575C6.56051 3.96531 7.33364 3.72859 8.75773 3.66369C10.2983 3.59306 10.7602 3.57778 14.6603 3.57778ZM14.6603 0.945313C10.6934 0.945313 10.1971 0.962493 8.63938 1.03313C7.08548 1.10376 6.02218 1.35192 5.09442 1.71272C4.1342 2.08688 3.31907 2.58512 2.50776 3.39643C1.69645 4.20775 1.1963 5.02288 0.824048 5.98309C0.463252 6.91276 0.216996 7.97415 0.144455 9.52805C0.0738227 11.0858 0.0566406 11.584 0.0566406 15.5489C0.0566406 19.5139 0.0738227 20.0121 0.144455 21.5698C0.215087 23.1237 0.463252 24.187 0.824048 25.1148C1.19821 26.075 1.69645 26.8902 2.50776 27.7015C3.31907 28.5128 4.1342 29.0129 5.09442 29.3852C6.02409 29.746 7.08548 29.9922 8.63938 30.0648C10.1971 30.1354 10.6953 30.1526 14.6603 30.1526C18.6252 30.1526 19.1234 30.1354 20.6812 30.0648C22.2351 29.9941 23.2984 29.746 24.2261 29.3852C25.1863 29.011 26.0015 28.5128 26.8128 27.7015C27.6241 26.8902 28.1243 26.075 28.4965 25.1148C28.8573 24.1851 29.1036 23.1237 29.1761 21.5698C29.2467 20.0121 29.2639 19.5139 29.2639 15.5489C29.2639 11.584 29.2467 11.0858 29.1761 9.52805C29.1055 7.97415 28.8573 6.91085 28.4965 5.98309C28.1223 5.02288 27.6241 4.20775 26.8128 3.39643C26.0015 2.58512 25.1863 2.08497 24.2261 1.71272C23.2965 1.35192 22.2351 1.10567 20.6812 1.03313C19.1234 0.962493 18.6252 0.945313 14.6603 0.945313Z" fill="white"/>
<path d="M14.6625 8.05176C10.52 8.05176 7.16211 11.4096 7.16211 15.5521C7.16211 19.6946 10.52 23.0525 14.6625 23.0525C18.8049 23.0525 22.1628 19.6946 22.1628 15.5521C22.1628 11.4096 18.8049 8.05176 14.6625 8.05176ZM14.6625 20.42C11.9727 20.42 9.79458 18.2399 9.79458 15.5521C9.79458 12.8643 11.9746 10.6842 14.6625 10.6842C17.3503 10.6842 19.5303 12.8643 19.5303 15.5521C19.5303 18.2399 17.3503 20.42 14.6625 20.42Z" fill="white"/>
<path d="M24.2043 7.79537C24.2276 6.8278 23.4621 6.02455 22.4945 6.00124C21.527 5.97793 20.7237 6.7434 20.7004 7.71096C20.6771 8.67852 21.4426 9.48179 22.4101 9.50509C23.3777 9.5284 24.181 8.76293 24.2043 7.79537Z" fill="white"/>
</svg>
