<svg width="30" height="29" viewBox="0 0 30 29" fill="none" xmlns="http://www.w3.org/2000/svg">
<path d="M27.3322 0.000202752H2.62093C2.34315 -0.0036319 2.06733 0.046961 1.80923 0.149092C1.55112 0.251223 1.31579 0.402892 1.11666 0.595437C0.917531 0.787982 0.758512 1.01763 0.648684 1.27127C0.538855 1.52491 0.480368 1.79757 0.476562 2.07367V26.9263C0.480368 27.2024 0.538855 27.4751 0.648684 27.7287C0.758512 27.9824 0.917531 28.212 1.11666 28.4046C1.31579 28.5971 1.55112 28.7488 1.80923 28.8509C2.06733 28.953 2.34315 29.0036 2.62093 28.9998H27.3322C27.61 29.0036 27.8858 28.953 28.1439 28.8509C28.402 28.7488 28.6373 28.5971 28.8365 28.4046C29.0356 28.212 29.1946 27.9824 29.3044 27.7287C29.4143 27.4751 29.4728 27.2024 29.4766 26.9263V2.07367C29.4728 1.79757 29.4143 1.52491 29.3044 1.27127C29.1946 1.01763 29.0356 0.787982 28.8365 0.595437C28.6373 0.402892 28.402 0.251223 28.1439 0.149092C27.8858 0.046961 27.61 -0.0036319 27.3322 0.000202752ZM9.27284 24.2729H4.89658V11.223H9.27284V24.2729ZM7.08471 9.39607C6.48117 9.39607 5.90235 9.15776 5.47558 8.73356C5.04881 8.30935 4.80906 7.73401 4.80906 7.1341C4.80906 6.53419 5.04881 5.95885 5.47558 5.53465C5.90235 5.11045 6.48117 4.87213 7.08471 4.87213C7.40519 4.83601 7.72974 4.86757 8.03709 4.96476C8.34445 5.06195 8.62769 5.22258 8.86826 5.43612C9.10884 5.64966 9.30132 5.9113 9.43311 6.20391C9.56491 6.49653 9.63303 6.81351 9.63303 7.1341C9.63303 7.4547 9.56491 7.77168 9.43311 8.06429C9.30132 8.3569 9.10884 8.61854 8.86826 8.83208C8.62769 9.04563 8.34445 9.20625 8.03709 9.30344C7.72974 9.40063 7.40519 9.4322 7.08471 9.39607ZM25.0565 24.2729H20.6803V17.2695C20.6803 15.515 20.053 14.3695 18.463 14.3695C17.9709 14.3731 17.4917 14.5265 17.0901 14.8091C16.6884 15.0917 16.3835 15.4899 16.2165 15.95C16.1023 16.2908 16.0529 16.6497 16.0706 17.0085V24.2584H11.6944C11.6944 24.2584 11.6944 12.3975 11.6944 11.2085H16.0706V13.05C16.4682 12.3643 17.0464 11.7994 17.743 11.4162C18.4396 11.0329 19.2282 10.8458 20.0238 10.875C22.9413 10.875 25.0565 12.7455 25.0565 16.762V24.2729Z" fill="white"/>
</svg>
